<mxfile host="app.diagrams.net" agent="Mozilla/5.0 (Windows NT 10.0; Win64; x64) AppleWebKit/537.36 (KHTML, like Gecko) Chrome/127.0.0.0 Safari/537.36" version="24.7.7">
  <diagram name="Page-1" id="O6P8euQBVxdzBJl6Sp2A">
    <mxGraphModel dx="3124" dy="2212" grid="1" gridSize="10" guides="1" tooltips="1" connect="1" arrows="1" fold="1" page="1" pageScale="1" pageWidth="850" pageHeight="1100" math="0" shadow="0">
      <root>
        <mxCell id="0" />
        <mxCell id="1" parent="0" />
        <mxCell id="ggsJDKtCPTXgLnvPsTXh-11" value="&lt;h3&gt;&lt;span style=&quot;font-size: 20px; font-weight: 700; text-align: start; background-color: rgba(224, 224, 224, 0.8);&quot;&gt;&lt;font face=&quot;Helvetica&quot;&gt;3-Tier AWS Architecutre&lt;/font&gt;&lt;/span&gt;&lt;/h3&gt;" style="text;html=1;align=center;verticalAlign=middle;whiteSpace=wrap;rounded=0;" vertex="1" parent="1">
          <mxGeometry x="210" y="-160" width="256" height="30" as="geometry" />
        </mxCell>
        <mxCell id="ggsJDKtCPTXgLnvPsTXh-1" value="AWS Cloud" style="points=[[0,0],[0.25,0],[0.5,0],[0.75,0],[1,0],[1,0.25],[1,0.5],[1,0.75],[1,1],[0.75,1],[0.5,1],[0.25,1],[0,1],[0,0.75],[0,0.5],[0,0.25]];outlineConnect=0;gradientColor=none;html=1;whiteSpace=wrap;fontSize=12;fontStyle=0;container=1;pointerEvents=0;collapsible=0;recursiveResize=0;shape=mxgraph.aws4.group;grIcon=mxgraph.aws4.group_aws_cloud_alt;strokeColor=#232F3E;fillColor=none;verticalAlign=top;align=left;spacingLeft=30;fontColor=#232F3E;dashed=0;" vertex="1" parent="1">
          <mxGeometry x="-360" y="-80" width="1440" height="1400" as="geometry" />
        </mxCell>
        <mxCell id="ggsJDKtCPTXgLnvPsTXh-48" value="Region" style="points=[[0,0],[0.25,0],[0.5,0],[0.75,0],[1,0],[1,0.25],[1,0.5],[1,0.75],[1,1],[0.75,1],[0.5,1],[0.25,1],[0,1],[0,0.75],[0,0.5],[0,0.25]];outlineConnect=0;gradientColor=none;html=1;whiteSpace=wrap;fontSize=12;fontStyle=0;container=1;pointerEvents=0;collapsible=0;recursiveResize=0;shape=mxgraph.aws4.group;grIcon=mxgraph.aws4.group_region;strokeColor=#00A4A6;fillColor=none;verticalAlign=top;align=left;spacingLeft=30;fontColor=#147EBA;dashed=1;" vertex="1" parent="ggsJDKtCPTXgLnvPsTXh-1">
          <mxGeometry x="40" y="40" width="1360" height="1320" as="geometry" />
        </mxCell>
        <mxCell id="ggsJDKtCPTXgLnvPsTXh-75" value="" style="edgeStyle=orthogonalEdgeStyle;rounded=0;orthogonalLoop=1;jettySize=auto;html=1;" edge="1" parent="ggsJDKtCPTXgLnvPsTXh-48" source="ggsJDKtCPTXgLnvPsTXh-67" target="ggsJDKtCPTXgLnvPsTXh-68">
          <mxGeometry relative="1" as="geometry" />
        </mxCell>
        <mxCell id="ggsJDKtCPTXgLnvPsTXh-67" value="" style="sketch=0;outlineConnect=0;fontColor=#232F3E;gradientColor=none;fillColor=#8C4FFF;strokeColor=none;dashed=0;verticalLabelPosition=bottom;verticalAlign=top;align=center;html=1;fontSize=12;fontStyle=0;aspect=fixed;pointerEvents=1;shape=mxgraph.aws4.internet_gateway;" vertex="1" parent="ggsJDKtCPTXgLnvPsTXh-48">
          <mxGeometry x="650" y="10" width="50" height="50" as="geometry" />
        </mxCell>
        <mxCell id="ggsJDKtCPTXgLnvPsTXh-12" value="VPC" style="points=[[0,0],[0.25,0],[0.5,0],[0.75,0],[1,0],[1,0.25],[1,0.5],[1,0.75],[1,1],[0.75,1],[0.5,1],[0.25,1],[0,1],[0,0.75],[0,0.5],[0,0.25]];outlineConnect=0;gradientColor=none;html=1;whiteSpace=wrap;fontSize=12;fontStyle=0;container=1;pointerEvents=0;collapsible=0;recursiveResize=0;shape=mxgraph.aws4.group;grIcon=mxgraph.aws4.group_vpc2;strokeColor=#8C4FFF;fillColor=none;verticalAlign=top;align=left;spacingLeft=30;fontColor=#AAB7B8;dashed=0;" vertex="1" parent="ggsJDKtCPTXgLnvPsTXh-48">
          <mxGeometry x="40" y="40" width="1280" height="1240" as="geometry" />
        </mxCell>
        <mxCell id="ggsJDKtCPTXgLnvPsTXh-15" value="Public subnet" style="points=[[0,0],[0.25,0],[0.5,0],[0.75,0],[1,0],[1,0.25],[1,0.5],[1,0.75],[1,1],[0.75,1],[0.5,1],[0.25,1],[0,1],[0,0.75],[0,0.5],[0,0.25]];outlineConnect=0;gradientColor=none;html=1;whiteSpace=wrap;fontSize=12;fontStyle=0;container=1;pointerEvents=0;collapsible=0;recursiveResize=0;shape=mxgraph.aws4.group;grIcon=mxgraph.aws4.group_security_group;grStroke=0;strokeColor=#7AA116;fillColor=#F2F6E8;verticalAlign=top;align=left;spacingLeft=30;fontColor=#248814;dashed=0;" vertex="1" parent="ggsJDKtCPTXgLnvPsTXh-12">
          <mxGeometry x="154.5" y="160" width="400" height="200" as="geometry" />
        </mxCell>
        <mxCell id="ggsJDKtCPTXgLnvPsTXh-18" value="Private subnet" style="points=[[0,0],[0.25,0],[0.5,0],[0.75,0],[1,0],[1,0.25],[1,0.5],[1,0.75],[1,1],[0.75,1],[0.5,1],[0.25,1],[0,1],[0,0.75],[0,0.5],[0,0.25]];outlineConnect=0;gradientColor=none;html=1;whiteSpace=wrap;fontSize=12;fontStyle=0;container=1;pointerEvents=0;collapsible=0;recursiveResize=0;shape=mxgraph.aws4.group;grIcon=mxgraph.aws4.group_security_group;grStroke=0;strokeColor=#00A4A6;fillColor=#E6F6F7;verticalAlign=top;align=left;spacingLeft=30;fontColor=#147EBA;dashed=0;" vertex="1" parent="ggsJDKtCPTXgLnvPsTXh-12">
          <mxGeometry x="160" y="520" width="400" height="200" as="geometry" />
        </mxCell>
        <mxCell id="ggsJDKtCPTXgLnvPsTXh-19" value="Private subnet" style="points=[[0,0],[0.25,0],[0.5,0],[0.75,0],[1,0],[1,0.25],[1,0.5],[1,0.75],[1,1],[0.75,1],[0.5,1],[0.25,1],[0,1],[0,0.75],[0,0.5],[0,0.25]];outlineConnect=0;gradientColor=none;html=1;whiteSpace=wrap;fontSize=12;fontStyle=0;container=1;pointerEvents=0;collapsible=0;recursiveResize=0;shape=mxgraph.aws4.group;grIcon=mxgraph.aws4.group_security_group;grStroke=0;strokeColor=#00A4A6;fillColor=#E6F6F7;verticalAlign=top;align=left;spacingLeft=30;fontColor=#147EBA;dashed=0;" vertex="1" parent="ggsJDKtCPTXgLnvPsTXh-12">
          <mxGeometry x="160" y="880" width="400" height="200" as="geometry" />
        </mxCell>
        <mxCell id="ggsJDKtCPTXgLnvPsTXh-55" value="" style="sketch=0;points=[[0,0,0],[0.25,0,0],[0.5,0,0],[0.75,0,0],[1,0,0],[0,1,0],[0.25,1,0],[0.5,1,0],[0.75,1,0],[1,1,0],[0,0.25,0],[0,0.5,0],[0,0.75,0],[1,0.25,0],[1,0.5,0],[1,0.75,0]];outlineConnect=0;fontColor=#232F3E;fillColor=#C925D1;strokeColor=#ffffff;dashed=0;verticalLabelPosition=bottom;verticalAlign=top;align=center;html=1;fontSize=12;fontStyle=0;aspect=fixed;shape=mxgraph.aws4.resourceIcon;resIcon=mxgraph.aws4.rds;" vertex="1" parent="ggsJDKtCPTXgLnvPsTXh-19">
          <mxGeometry x="150" y="61" width="78" height="78" as="geometry" />
        </mxCell>
        <mxCell id="ggsJDKtCPTXgLnvPsTXh-49" value="&lt;font style=&quot;font-size: 24px;&quot;&gt;&lt;b style=&quot;&quot;&gt;Web Tier&lt;/b&gt;&lt;/font&gt;" style="text;html=1;align=center;verticalAlign=middle;resizable=0;points=[];autosize=1;strokeColor=none;fillColor=none;" vertex="1" parent="ggsJDKtCPTXgLnvPsTXh-12">
          <mxGeometry x="20" y="220" width="120" height="40" as="geometry" />
        </mxCell>
        <mxCell id="ggsJDKtCPTXgLnvPsTXh-50" value="&lt;b&gt;&lt;font style=&quot;font-size: 24px;&quot;&gt;Application&amp;nbsp;&lt;/font&gt;&lt;/b&gt;&lt;div&gt;&lt;b&gt;&lt;font style=&quot;font-size: 24px;&quot;&gt;Tier&lt;/font&gt;&lt;/b&gt;&lt;/div&gt;" style="text;html=1;align=center;verticalAlign=middle;resizable=0;points=[];autosize=1;strokeColor=none;fillColor=none;" vertex="1" parent="ggsJDKtCPTXgLnvPsTXh-12">
          <mxGeometry y="560" width="160" height="70" as="geometry" />
        </mxCell>
        <mxCell id="ggsJDKtCPTXgLnvPsTXh-52" value="&lt;font style=&quot;font-size: 24px;&quot;&gt;&lt;b&gt;Database&lt;/b&gt;&lt;/font&gt;&lt;div&gt;&lt;font style=&quot;font-size: 24px;&quot;&gt;&lt;b&gt;&amp;nbsp;Tier&lt;/b&gt;&lt;/font&gt;&lt;/div&gt;" style="text;html=1;align=center;verticalAlign=middle;resizable=0;points=[];autosize=1;strokeColor=none;fillColor=none;" vertex="1" parent="ggsJDKtCPTXgLnvPsTXh-12">
          <mxGeometry x="9.5" y="930" width="130" height="70" as="geometry" />
        </mxCell>
        <mxCell id="ggsJDKtCPTXgLnvPsTXh-56" value="Public subnet" style="points=[[0,0],[0.25,0],[0.5,0],[0.75,0],[1,0],[1,0.25],[1,0.5],[1,0.75],[1,1],[0.75,1],[0.5,1],[0.25,1],[0,1],[0,0.75],[0,0.5],[0,0.25]];outlineConnect=0;gradientColor=none;html=1;whiteSpace=wrap;fontSize=12;fontStyle=0;container=1;pointerEvents=0;collapsible=0;recursiveResize=0;shape=mxgraph.aws4.group;grIcon=mxgraph.aws4.group_security_group;grStroke=0;strokeColor=#7AA116;fillColor=#F2F6E8;verticalAlign=top;align=left;spacingLeft=30;fontColor=#248814;dashed=0;" vertex="1" parent="ggsJDKtCPTXgLnvPsTXh-12">
          <mxGeometry x="714.5" y="160" width="400" height="200" as="geometry" />
        </mxCell>
        <mxCell id="ggsJDKtCPTXgLnvPsTXh-57" value="" style="sketch=0;points=[[0,0,0],[0.25,0,0],[0.5,0,0],[0.75,0,0],[1,0,0],[0,1,0],[0.25,1,0],[0.5,1,0],[0.75,1,0],[1,1,0],[0,0.25,0],[0,0.5,0],[0,0.75,0],[1,0.25,0],[1,0.5,0],[1,0.75,0]];outlineConnect=0;fontColor=#232F3E;fillColor=#ED7100;strokeColor=#ffffff;dashed=0;verticalLabelPosition=bottom;verticalAlign=top;align=center;html=1;fontSize=12;fontStyle=0;aspect=fixed;shape=mxgraph.aws4.resourceIcon;resIcon=mxgraph.aws4.ec2;" vertex="1" parent="ggsJDKtCPTXgLnvPsTXh-56">
          <mxGeometry x="80" y="60" width="79" height="79" as="geometry" />
        </mxCell>
        <mxCell id="ggsJDKtCPTXgLnvPsTXh-61" value="Private subnet" style="points=[[0,0],[0.25,0],[0.5,0],[0.75,0],[1,0],[1,0.25],[1,0.5],[1,0.75],[1,1],[0.75,1],[0.5,1],[0.25,1],[0,1],[0,0.75],[0,0.5],[0,0.25]];outlineConnect=0;gradientColor=none;html=1;whiteSpace=wrap;fontSize=12;fontStyle=0;container=1;pointerEvents=0;collapsible=0;recursiveResize=0;shape=mxgraph.aws4.group;grIcon=mxgraph.aws4.group_security_group;grStroke=0;strokeColor=#00A4A6;fillColor=#E6F6F7;verticalAlign=top;align=left;spacingLeft=30;fontColor=#147EBA;dashed=0;" vertex="1" parent="ggsJDKtCPTXgLnvPsTXh-12">
          <mxGeometry x="720" y="520" width="400" height="200" as="geometry" />
        </mxCell>
        <mxCell id="ggsJDKtCPTXgLnvPsTXh-64" value="Private subnet" style="points=[[0,0],[0.25,0],[0.5,0],[0.75,0],[1,0],[1,0.25],[1,0.5],[1,0.75],[1,1],[0.75,1],[0.5,1],[0.25,1],[0,1],[0,0.75],[0,0.5],[0,0.25]];outlineConnect=0;gradientColor=none;html=1;whiteSpace=wrap;fontSize=12;fontStyle=0;container=1;pointerEvents=0;collapsible=0;recursiveResize=0;shape=mxgraph.aws4.group;grIcon=mxgraph.aws4.group_security_group;grStroke=0;strokeColor=#00A4A6;fillColor=#E6F6F7;verticalAlign=top;align=left;spacingLeft=30;fontColor=#147EBA;dashed=0;" vertex="1" parent="ggsJDKtCPTXgLnvPsTXh-12">
          <mxGeometry x="720" y="880" width="400" height="200" as="geometry" />
        </mxCell>
        <mxCell id="ggsJDKtCPTXgLnvPsTXh-65" value="" style="sketch=0;points=[[0,0,0],[0.25,0,0],[0.5,0,0],[0.75,0,0],[1,0,0],[0,1,0],[0.25,1,0],[0.5,1,0],[0.75,1,0],[1,1,0],[0,0.25,0],[0,0.5,0],[0,0.75,0],[1,0.25,0],[1,0.5,0],[1,0.75,0]];outlineConnect=0;fontColor=#232F3E;fillColor=#C925D1;strokeColor=#ffffff;dashed=0;verticalLabelPosition=bottom;verticalAlign=top;align=center;html=1;fontSize=12;fontStyle=0;aspect=fixed;shape=mxgraph.aws4.resourceIcon;resIcon=mxgraph.aws4.rds;" vertex="1" parent="ggsJDKtCPTXgLnvPsTXh-64">
          <mxGeometry x="161" y="61" width="78" height="78" as="geometry" />
        </mxCell>
        <mxCell id="ggsJDKtCPTXgLnvPsTXh-68" value="" style="outlineConnect=0;dashed=0;verticalLabelPosition=bottom;verticalAlign=top;align=center;html=1;shape=mxgraph.aws3.application_load_balancer;fillColor=#F58536;gradientColor=none;" vertex="1" parent="ggsJDKtCPTXgLnvPsTXh-12">
          <mxGeometry x="599.5" y="60" width="70" height="60" as="geometry" />
        </mxCell>
        <mxCell id="ggsJDKtCPTXgLnvPsTXh-69" value="Auto Scaling group" style="points=[[0,0],[0.25,0],[0.5,0],[0.75,0],[1,0],[1,0.25],[1,0.5],[1,0.75],[1,1],[0.75,1],[0.5,1],[0.25,1],[0,1],[0,0.75],[0,0.5],[0,0.25]];outlineConnect=0;gradientColor=none;html=1;whiteSpace=wrap;fontSize=12;fontStyle=0;container=1;pointerEvents=0;collapsible=0;recursiveResize=0;shape=mxgraph.aws4.groupCenter;grIcon=mxgraph.aws4.group_auto_scaling_group;grStroke=1;strokeColor=#D86613;fillColor=none;verticalAlign=top;align=center;fontColor=#D86613;dashed=1;spacingTop=25;" vertex="1" parent="ggsJDKtCPTXgLnvPsTXh-12">
          <mxGeometry x="184.5" y="190" width="915.5" height="150" as="geometry" />
        </mxCell>
        <mxCell id="ggsJDKtCPTXgLnvPsTXh-16" value="" style="sketch=0;points=[[0,0,0],[0.25,0,0],[0.5,0,0],[0.75,0,0],[1,0,0],[0,1,0],[0.25,1,0],[0.5,1,0],[0.75,1,0],[1,1,0],[0,0.25,0],[0,0.5,0],[0,0.75,0],[1,0.25,0],[1,0.5,0],[1,0.75,0]];outlineConnect=0;fontColor=#232F3E;fillColor=#ED7100;strokeColor=#ffffff;dashed=0;verticalLabelPosition=bottom;verticalAlign=top;align=center;html=1;fontSize=12;fontStyle=0;aspect=fixed;shape=mxgraph.aws4.resourceIcon;resIcon=mxgraph.aws4.ec2;" vertex="1" parent="ggsJDKtCPTXgLnvPsTXh-69">
          <mxGeometry x="47.5" y="40" width="78" height="78" as="geometry" />
        </mxCell>
        <mxCell id="ggsJDKtCPTXgLnvPsTXh-24" value="" style="sketch=0;points=[[0,0,0],[0.25,0,0],[0.5,0,0],[0.75,0,0],[1,0,0],[0,1,0],[0.25,1,0],[0.5,1,0],[0.75,1,0],[1,1,0],[0,0.25,0],[0,0.5,0],[0,0.75,0],[1,0.25,0],[1,0.5,0],[1,0.75,0]];outlineConnect=0;fontColor=#232F3E;fillColor=#ED7100;strokeColor=#ffffff;dashed=0;verticalLabelPosition=bottom;verticalAlign=top;align=center;html=1;fontSize=12;fontStyle=0;aspect=fixed;shape=mxgraph.aws4.resourceIcon;resIcon=mxgraph.aws4.ec2;" vertex="1" parent="ggsJDKtCPTXgLnvPsTXh-69">
          <mxGeometry x="225.5" y="36" width="78" height="78" as="geometry" />
        </mxCell>
        <mxCell id="ggsJDKtCPTXgLnvPsTXh-58" value="" style="sketch=0;points=[[0,0,0],[0.25,0,0],[0.5,0,0],[0.75,0,0],[1,0,0],[0,1,0],[0.25,1,0],[0.5,1,0],[0.75,1,0],[1,1,0],[0,0.25,0],[0,0.5,0],[0,0.75,0],[1,0.25,0],[1,0.5,0],[1,0.75,0]];outlineConnect=0;fontColor=#232F3E;fillColor=#ED7100;strokeColor=#ffffff;dashed=0;verticalLabelPosition=bottom;verticalAlign=top;align=center;html=1;fontSize=12;fontStyle=0;aspect=fixed;shape=mxgraph.aws4.resourceIcon;resIcon=mxgraph.aws4.ec2;" vertex="1" parent="ggsJDKtCPTXgLnvPsTXh-69">
          <mxGeometry x="765.5" y="30.5" width="78" height="78" as="geometry" />
        </mxCell>
        <mxCell id="ggsJDKtCPTXgLnvPsTXh-113" value="Security group" style="fillColor=none;strokeColor=#DD3522;verticalAlign=top;fontStyle=0;fontColor=#DD3522;whiteSpace=wrap;html=1;" vertex="1" parent="ggsJDKtCPTXgLnvPsTXh-69">
          <mxGeometry x="35.5" y="17" width="844.5" height="116" as="geometry" />
        </mxCell>
        <mxCell id="ggsJDKtCPTXgLnvPsTXh-70" value="Auto Scaling group" style="points=[[0,0],[0.25,0],[0.5,0],[0.75,0],[1,0],[1,0.25],[1,0.5],[1,0.75],[1,1],[0.75,1],[0.5,1],[0.25,1],[0,1],[0,0.75],[0,0.5],[0,0.25]];outlineConnect=0;gradientColor=none;html=1;whiteSpace=wrap;fontSize=12;fontStyle=0;container=1;pointerEvents=0;collapsible=0;recursiveResize=0;shape=mxgraph.aws4.groupCenter;grIcon=mxgraph.aws4.group_auto_scaling_group;grStroke=1;strokeColor=#D86613;fillColor=none;verticalAlign=top;align=center;fontColor=#D86613;dashed=1;spacingTop=25;" vertex="1" parent="ggsJDKtCPTXgLnvPsTXh-12">
          <mxGeometry x="180" y="540" width="920" height="160" as="geometry" />
        </mxCell>
        <mxCell id="ggsJDKtCPTXgLnvPsTXh-53" value="" style="sketch=0;points=[[0,0,0],[0.25,0,0],[0.5,0,0],[0.75,0,0],[1,0,0],[0,1,0],[0.25,1,0],[0.5,1,0],[0.75,1,0],[1,1,0],[0,0.25,0],[0,0.5,0],[0,0.75,0],[1,0.25,0],[1,0.5,0],[1,0.75,0]];outlineConnect=0;fontColor=#232F3E;fillColor=#ED7100;strokeColor=#ffffff;dashed=0;verticalLabelPosition=bottom;verticalAlign=top;align=center;html=1;fontSize=12;fontStyle=0;aspect=fixed;shape=mxgraph.aws4.resourceIcon;resIcon=mxgraph.aws4.ec2;" vertex="1" parent="ggsJDKtCPTXgLnvPsTXh-70">
          <mxGeometry x="52" y="41" width="78" height="78" as="geometry" />
        </mxCell>
        <mxCell id="ggsJDKtCPTXgLnvPsTXh-54" value="" style="sketch=0;points=[[0,0,0],[0.25,0,0],[0.5,0,0],[0.75,0,0],[1,0,0],[0,1,0],[0.25,1,0],[0.5,1,0],[0.75,1,0],[1,1,0],[0,0.25,0],[0,0.5,0],[0,0.75,0],[1,0.25,0],[1,0.5,0],[1,0.75,0]];outlineConnect=0;fontColor=#232F3E;fillColor=#ED7100;strokeColor=#ffffff;dashed=0;verticalLabelPosition=bottom;verticalAlign=top;align=center;html=1;fontSize=12;fontStyle=0;aspect=fixed;shape=mxgraph.aws4.resourceIcon;resIcon=mxgraph.aws4.ec2;" vertex="1" parent="ggsJDKtCPTXgLnvPsTXh-70">
          <mxGeometry x="220" y="43" width="78" height="78" as="geometry" />
        </mxCell>
        <mxCell id="ggsJDKtCPTXgLnvPsTXh-63" value="" style="sketch=0;points=[[0,0,0],[0.25,0,0],[0.5,0,0],[0.75,0,0],[1,0,0],[0,1,0],[0.25,1,0],[0.5,1,0],[0.75,1,0],[1,1,0],[0,0.25,0],[0,0.5,0],[0,0.75,0],[1,0.25,0],[1,0.5,0],[1,0.75,0]];outlineConnect=0;fontColor=#232F3E;fillColor=#ED7100;strokeColor=#ffffff;dashed=0;verticalLabelPosition=bottom;verticalAlign=top;align=center;html=1;fontSize=12;fontStyle=0;aspect=fixed;shape=mxgraph.aws4.resourceIcon;resIcon=mxgraph.aws4.ec2;" vertex="1" parent="ggsJDKtCPTXgLnvPsTXh-70">
          <mxGeometry x="780" y="40" width="78" height="78" as="geometry" />
        </mxCell>
        <mxCell id="ggsJDKtCPTXgLnvPsTXh-62" value="" style="sketch=0;points=[[0,0,0],[0.25,0,0],[0.5,0,0],[0.75,0,0],[1,0,0],[0,1,0],[0.25,1,0],[0.5,1,0],[0.75,1,0],[1,1,0],[0,0.25,0],[0,0.5,0],[0,0.75,0],[1,0.25,0],[1,0.5,0],[1,0.75,0]];outlineConnect=0;fontColor=#232F3E;fillColor=#ED7100;strokeColor=#ffffff;dashed=0;verticalLabelPosition=bottom;verticalAlign=top;align=center;html=1;fontSize=12;fontStyle=0;aspect=fixed;shape=mxgraph.aws4.resourceIcon;resIcon=mxgraph.aws4.ec2;" vertex="1" parent="ggsJDKtCPTXgLnvPsTXh-70">
          <mxGeometry x="615.5" y="41" width="78" height="78" as="geometry" />
        </mxCell>
        <mxCell id="ggsJDKtCPTXgLnvPsTXh-116" value="Security group" style="fillColor=none;strokeColor=#DD3522;verticalAlign=top;fontStyle=0;fontColor=#DD3522;whiteSpace=wrap;html=1;" vertex="1" parent="ggsJDKtCPTXgLnvPsTXh-70">
          <mxGeometry x="30" y="14" width="860" height="130" as="geometry" />
        </mxCell>
        <mxCell id="ggsJDKtCPTXgLnvPsTXh-78" value="" style="outlineConnect=0;dashed=0;verticalLabelPosition=bottom;verticalAlign=top;align=center;html=1;shape=mxgraph.aws3.application_load_balancer;fillColor=#F58536;gradientColor=none;" vertex="1" parent="ggsJDKtCPTXgLnvPsTXh-12">
          <mxGeometry x="599.5" y="390" width="70" height="60" as="geometry" />
        </mxCell>
        <mxCell id="ggsJDKtCPTXgLnvPsTXh-102" value="" style="edgeStyle=orthogonalEdgeStyle;html=1;endArrow=none;elbow=vertical;startArrow=openThin;startFill=1;strokeColor=blue;rounded=0;shape=flexArrow;fillColor=#6666FF;" edge="1" parent="ggsJDKtCPTXgLnvPsTXh-12" source="ggsJDKtCPTXgLnvPsTXh-70">
          <mxGeometry width="100" relative="1" as="geometry">
            <mxPoint x="628.67" y="550" as="sourcePoint" />
            <mxPoint x="640" y="450" as="targetPoint" />
          </mxGeometry>
        </mxCell>
        <mxCell id="ggsJDKtCPTXgLnvPsTXh-103" value="" style="edgeStyle=orthogonalEdgeStyle;html=1;endArrow=none;elbow=vertical;startArrow=openThin;startFill=1;strokeColor=blue;rounded=0;shape=flexArrow;fillColor=#6666FF;" edge="1" parent="ggsJDKtCPTXgLnvPsTXh-12">
          <mxGeometry width="100" relative="1" as="geometry">
            <mxPoint x="641.5799999999999" y="910" as="sourcePoint" />
            <mxPoint x="641.25" y="670" as="targetPoint" />
          </mxGeometry>
        </mxCell>
        <mxCell id="ggsJDKtCPTXgLnvPsTXh-104" value="&lt;font style=&quot;font-size: 18px;&quot;&gt;&lt;b&gt;Load Ballancer&lt;/b&gt;&lt;/font&gt;" style="text;html=1;align=center;verticalAlign=middle;resizable=0;points=[];autosize=1;strokeColor=none;fillColor=none;" vertex="1" parent="ggsJDKtCPTXgLnvPsTXh-12">
          <mxGeometry x="680" y="70" width="150" height="40" as="geometry" />
        </mxCell>
        <mxCell id="ggsJDKtCPTXgLnvPsTXh-105" value="&lt;font style=&quot;font-size: 18px;&quot;&gt;&lt;b&gt;Internet Gateway&lt;/b&gt;&lt;/font&gt;" style="text;html=1;align=center;verticalAlign=middle;resizable=0;points=[];autosize=1;strokeColor=none;fillColor=none;" vertex="1" parent="ggsJDKtCPTXgLnvPsTXh-12">
          <mxGeometry x="669.5" y="-37" width="170" height="40" as="geometry" />
        </mxCell>
        <mxCell id="ggsJDKtCPTXgLnvPsTXh-106" value="&lt;font style=&quot;font-size: 18px;&quot;&gt;&lt;b&gt;(React frontend)&lt;/b&gt;&lt;/font&gt;" style="text;html=1;align=center;verticalAlign=middle;resizable=0;points=[];autosize=1;strokeColor=none;fillColor=none;" vertex="1" parent="ggsJDKtCPTXgLnvPsTXh-12">
          <mxGeometry y="260" width="160" height="40" as="geometry" />
        </mxCell>
        <mxCell id="ggsJDKtCPTXgLnvPsTXh-107" value="&lt;font style=&quot;font-size: 18px;&quot;&gt;&lt;b&gt;(Django backend)&lt;/b&gt;&lt;/font&gt;" style="text;html=1;align=center;verticalAlign=middle;resizable=0;points=[];autosize=1;strokeColor=none;fillColor=none;" vertex="1" parent="ggsJDKtCPTXgLnvPsTXh-12">
          <mxGeometry x="-5" y="630" width="170" height="40" as="geometry" />
        </mxCell>
        <mxCell id="ggsJDKtCPTXgLnvPsTXh-108" value="&lt;font style=&quot;font-size: 18px;&quot;&gt;&lt;b&gt;(SQLite)&lt;/b&gt;&lt;/font&gt;" style="text;html=1;align=center;verticalAlign=middle;resizable=0;points=[];autosize=1;strokeColor=none;fillColor=none;" vertex="1" parent="ggsJDKtCPTXgLnvPsTXh-12">
          <mxGeometry x="29.5" y="1000" width="90" height="40" as="geometry" />
        </mxCell>
        <mxCell id="ggsJDKtCPTXgLnvPsTXh-112" value="Security group" style="fillColor=none;strokeColor=#DD3522;verticalAlign=top;fontStyle=0;fontColor=#DD3522;whiteSpace=wrap;html=1;" vertex="1" parent="ggsJDKtCPTXgLnvPsTXh-12">
          <mxGeometry x="258" y="910" width="762" height="135" as="geometry" />
        </mxCell>
        <mxCell id="ggsJDKtCPTXgLnvPsTXh-101" value="" style="edgeStyle=orthogonalEdgeStyle;html=1;endArrow=none;elbow=vertical;startArrow=openThin;startFill=1;strokeColor=blue;rounded=0;shape=flexArrow;fillColor=#6666FF;" edge="1" parent="ggsJDKtCPTXgLnvPsTXh-12">
          <mxGeometry width="100" relative="1" as="geometry">
            <mxPoint x="638.3299999999999" y="190" as="sourcePoint" />
            <mxPoint x="638" y="110" as="targetPoint" />
          </mxGeometry>
        </mxCell>
        <mxCell id="ggsJDKtCPTXgLnvPsTXh-110" value="&lt;font style=&quot;font-size: 18px;&quot;&gt;&lt;b&gt;1B&lt;/b&gt;&lt;/font&gt;" style="fillColor=none;strokeColor=#147EBA;dashed=1;verticalAlign=top;fontStyle=0;fontColor=#147EBA;whiteSpace=wrap;html=1;" vertex="1" parent="ggsJDKtCPTXgLnvPsTXh-12">
          <mxGeometry x="680" y="120" width="480" height="1000" as="geometry" />
        </mxCell>
        <mxCell id="ggsJDKtCPTXgLnvPsTXh-109" value="&lt;font style=&quot;font-size: 18px;&quot;&gt;&lt;b&gt;1A&lt;/b&gt;&lt;/font&gt;" style="fillColor=none;strokeColor=#147EBA;dashed=1;verticalAlign=top;fontStyle=0;fontColor=#147EBA;whiteSpace=wrap;html=1;" vertex="1" parent="ggsJDKtCPTXgLnvPsTXh-12">
          <mxGeometry x="119" y="120" width="480.5" height="1000" as="geometry" />
        </mxCell>
        <mxCell id="ggsJDKtCPTXgLnvPsTXh-96" value="" style="edgeStyle=orthogonalEdgeStyle;html=1;endArrow=none;elbow=vertical;startArrow=openThin;startFill=1;strokeColor=blue;rounded=0;shape=flexArrow;fillColor=#6666FF;" edge="1" parent="ggsJDKtCPTXgLnvPsTXh-12">
          <mxGeometry width="100" relative="1" as="geometry">
            <mxPoint x="639" y="390" as="sourcePoint" />
            <mxPoint x="639.3299999999999" y="280" as="targetPoint" />
          </mxGeometry>
        </mxCell>
        <mxCell id="ggsJDKtCPTXgLnvPsTXh-84" style="edgeStyle=orthogonalEdgeStyle;rounded=0;orthogonalLoop=1;jettySize=auto;html=1;exitX=0;exitY=0.47;exitDx=0;exitDy=0;exitPerimeter=0;" edge="1" parent="1" source="ggsJDKtCPTXgLnvPsTXh-83" target="ggsJDKtCPTXgLnvPsTXh-67">
          <mxGeometry relative="1" as="geometry" />
        </mxCell>
        <mxCell id="ggsJDKtCPTXgLnvPsTXh-83" value="" style="outlineConnect=0;dashed=0;verticalLabelPosition=bottom;verticalAlign=top;align=center;html=1;shape=mxgraph.aws3.internet;fillColor=#D2D3D3;gradientColor=none;" vertex="1" parent="1">
          <mxGeometry x="630" y="-160" width="79.5" height="79.5" as="geometry" />
        </mxCell>
      </root>
    </mxGraphModel>
  </diagram>
</mxfile>
